<svg viewBox="0 0 29 29" xmlns="http://www.w3.org/2000/svg">
  <path d="M14.1707 28.4523C21.9969 28.4523 28.3413 22.0831 28.3413 14.2262C28.3413 6.36926 21.9969 0 14.1707 0C6.34441 0 0 6.36926 0 14.2262C0 22.0831 6.34441 28.4523 14.1707 28.4523Z" fill="#2CA01C"/>
  <path d="M9.44351 8.69386C6.39839 8.69386 3.93268 11.1724 3.93268 14.2263C3.93268 17.2833 6.39839 19.7587 9.44351 19.7587C9.70488 19.7587 9.9694 19.7587 10.2308 19.7587V17.7038H9.44351C7.53204 17.7038 5.97957 16.1452 5.97957 14.2263C5.97957 12.3073 7.53204 10.7488 9.44351 10.7488H11.3361C11.3361 10.7488 11.3361 21.2951 11.3361 21.4974C11.3361 22.6323 12.2524 23.5523 13.383 23.5523V8.69386C13.383 8.69386 11.2637 8.69386 9.44351 8.69386Z" fill="white"/>
  <path d="M18.8948 19.7586C21.9399 19.7586 24.4056 17.2801 24.4056 14.2262C24.4056 11.1692 21.9399 8.69381 18.8948 8.69381C18.6334 8.69381 18.3689 8.69381 18.1075 8.69381V10.7487H18.8948C20.8062 10.7487 22.3587 12.3073 22.3587 14.2262C22.3587 16.1452 20.8062 17.7037 18.8948 17.7037H17.0022C17.0022 17.7037 17.0022 7.15738 17.0022 6.95505C17.0022 5.82012 16.0858 4.90016 14.9553 4.90016V19.7586C14.9553 19.7586 17.0746 19.7586 18.8948 19.7586Z" fill="white"/>
</svg>
