<?xml version="1.0" encoding="UTF-8"?>
<svg id="Layer_1" xmlns="http://www.w3.org/2000/svg" version="1.1" viewBox="0 0 202.7 49.9">
  <!-- Generator: Adobe Illustrator 30.2.1, SVG Export Plug-In . SVG Version: 2.1.1 Build 1)  -->
  <defs>
    <style>
      .st0 {
        fill: #062106;
      }

      .st1, .st2 {
        fill: #d7f5ec;
      }

      .st3 {
        fill: #fff;
      }

      .st2 {
        fill-rule: evenodd;
      }

      .st4 {
        fill: #62ccae;
      }
    </style>
  </defs>
  <polyline class="st3" points="25.6 1.7 25.6 8.7 18.7 8.7 18.7 48.2 10.2 48.2 10.2 8.7 3.3 8.7 3.3 1.7 25.6 1.7"/>
  <polyline class="st3" points="48.6 41.3 48.6 48.2 30.2 48.2 30.2 1.7 47.3 1.7 47.3 8.7 38.4 8.7 38.4 21.3 46.3 21.3 46.3 27.8 38.4 27.8 38.4 41.3 48.6 41.3"/>
  <path class="st3" d="M73.5,36c0,8.5-3.3,13.1-10.9,13.1s-5.7-.8-7.6-2.6-2.8-4.9-2.8-9.4.6-4.9,1-6.5l7.3-.3c-.2,1.9-.5,4.5-.5,6.5,0,5.1.7,6.7,2.6,6.7s1.3-.4,1.7-1.1c.4-.7.6-2.4.6-5s-.4-5.6-1.2-6.8c-.7-1.3-2.1-2.5-4-3.6l-2.1-1.2c-4.6-2.7-6.2-7.3-6.2-12.7,0-7.9,3.7-12,10.3-12s9.9,3.6,9.9,10.4-.3,3.3-.6,4.8l-7.2.7c.2-1.3.4-3.7.4-5.1,0-4.4-.5-5.7-2.4-5.7s-2.1,1.8-2.1,5.1.4,4.4,1.1,5.5c.8,1,1.8,1.9,2.9,2.6l2.6,1.5c4.3,2.4,7.2,7,7.2,15.2"/>
  <polyline class="st3" points="96.7 1.7 96.7 8.7 89.9 8.7 89.9 48.2 81.3 48.2 81.3 8.7 74.4 8.7 74.4 1.7 96.7 1.7"/>
  <path class="st3" d="M114.3,14.6c0-5.4-.6-7.4-3.2-7.4h-1.5v13.4h2.1c2.1,0,2.6-2,2.6-5.9M114.9,34.2c0-5.1-.6-7.8-3.3-7.8h-2v16.4h2.1c1.3,0,2.1-.5,2.5-1.6.4-1.2.7-3.4.7-7M123.6,35.1c0,9.6-4.3,13.1-11.7,13.1h-10.5V1.7h10.6c4,0,6.7,1.2,8.1,3.4,1.4,2.2,2.1,5.4,2.1,9.3,0,5.6-2.1,8.8-5.8,9,4.1,0,7.1,4.1,7.1,11.6"/>
  <polyline class="st3" points="191.9 23.9 199.5 48.2 190.3 48.2 186.5 34 183.5 48.2 175.6 48.2 182 23.9 176.3 1.7 185.1 1.7 188 14.2 191 1.7 199.1 1.7 191.9 23.9"/>
  <path class="st0" d="M152.2.8c-1.6,0-3.3.4-3.8.7l-15.1,6.5s-1.5.6-2.4,1.7c-.9,1.1-1,2.3-1,3.1v10.1c-.9.5-2,1.2-2.5,2.1-.7,1.1-1.3,2.9-.5,4.7,1.1,1.8,2.2,2.5,3,3.2v4.7c0,.9.3,1.4.5,1.7.2.3.8,1.3,2.6,2.2l14.6,6.5c2.1,1.1,5.8,1.2,7.8.3l6-2.6,9.3-4.1c1.1-.5,2-1.3,2.3-1.7.7-.8,1.1-1.8,1.1-2.8V12.4c0-1.3-.6-2.2-1-2.7-.2-.3-.7-.9-2.8-1.9l-13.4-5.9c-2-.9-3.1-1.1-4.7-1.1"/>
  <path class="st4" d="M152.1,2c-1.5,0-3.1.4-3.6.6l-14.2,6.2s-1.4.5-2.3,1.6c-.8,1.1-.9,2.2-.9,2.9s0,10.7,0,10.7c-1.3,0-2.4.8-2.9,1.6-.6.9-1,2.5-.1,4,1.1,1.4,2.3,2.4,3,2.5v4.8c0,.9.3,1.4.5,1.6.2.2.8,1.2,2.4,2.1l13.8,6.2c2,1,5.4,1.1,7.4.3l5.7-2.5,8.8-3.9c1-.4,1.9-1.2,2.2-1.6.6-.8,1-1.7,1-2.7V13.1c0-1.3-.6-2.1-.9-2.5-.2-.3-.7-.9-2.6-1.8l-12.7-5.6c-1.9-.9-3-1-4.4-1"/>
  <path class="st0" d="M131.1,22.6c.4.1,1.5.6,1.5,1.8.2,4.2,0,4.7-1.1,6.1-.1.2-.3.3-.4.9v1.7h-1.2v-2.2c0-.3,0-.6.4-.9.4-.4.9-1.1,1-2,0-1.4,0-2.6,0-3.4,0-.5-.7-.5-1.2-.3h-.4c0,.2-.1.2-.2.2l1.6-1.7"/>
  <path class="st0" d="M138.4,15.4c-.2,1.5-1.3,2.4-2.4,2.2-1-.3-1.5-1.7-1.1-3.2.3-1.2,1.3-2.4,2.4-2.2,1,.3,1.4,1.5,1.1,3.2"/>
  <path class="st0" d="M148.9,12.1c-.4,1.7-1.6,2.8-2.9,2.5-1.2-.3-1.8-1.9-1.4-3.6.6-1.6,1.7-2.6,2.9-2.3,1.2.3,1.7,1.8,1.3,3.4"/>
  <path class="st0" d="M136,22.8c-.6.2-1.1,1-1.1,1.6v4.2c-.1,6.4,3.1,9.1,5.2,10,3.6,1.2,6.5-1.4,7.5-2.9,1.9-2.8,2.5-7.2,2.5-10v-3.3c0-1.3-.8-1.5-1.2-1.5-.6,0-1.4.4-1.7.6-1,.6-2.8,1.8-3.7,2.2-1.4.7-3,.8-3.8.6-.6-.1-1.2-.6-1.7-.9-.8-.6-1.3-.8-1.9-.7"/>
  <path class="st1" d="M148.7,30.4c-7-.3-9.8,3.4-11,5.5,2,2.4,4.9,2.3,5.8,1.8,3.5-1.5,4.8-5.6,5.1-7.3"/>
  <path class="st2" d="M152.8,2c.4.3.9.9.9,2.1v15.5c.3,0,.7,0,.9,0l.2-15.1c0-.4,0-1,.3-1.3.2-.2.5-.4.9-.4-1.3-.6-2.1-.8-3.1-.8"/>
  <path class="st0" d="M152.2,25.8c0,2.3,1.1,2.9,1.6,3.3v2.5c.1.6.7.6,1,.4,1.5-1,2.7-2.1,3.9-4,.9-1.9.7-4.2.2-5-.4-.9-1-1.7-2.2-2.6-1.1-.8-2.3-1-3-.8-.9.2-1.3.9-1.4,2.2v4"/>
  <path class="st4" d="M153.5,22.8v3c0,1.3.7,2.1,1.2,2.5.3.2.3.5.3.8v.8c0,.3.1.3.2.2,1-.8,2.1-1.7,2.6-3.2.3-.8.5-2.5-.2-3.5-1-1.4-2.1-2.5-3.2-2.4-.8,0-1,1-1,1.8"/>
</svg>
